<svg width="177" height="94" viewBox="0 0 177 94" fill="none" xmlns="http://www.w3.org/2000/svg">
<path d="M94.9091 0.909088L79.4545 94H60.3636L32.3182 40.2727H31.6818L22.7273 94H0.227273L15.6818 0.909088H35.0455L62.8636 54.5455H63.6364L72.4545 0.909088H94.9091ZM93.6023 94L109.057 0.909088H147.875C154.845 0.909088 160.527 1.89394 164.92 3.86363C169.314 5.83333 172.405 8.5909 174.193 12.1364C176.011 15.6818 176.527 19.7879 175.739 24.4545C175.102 27.9697 173.799 31.1212 171.83 33.9091C169.89 36.6667 167.466 38.9697 164.557 40.8182C161.648 42.6364 158.436 43.9091 154.92 44.6364L154.739 45.5455C158.496 45.697 161.814 46.697 164.693 48.5455C167.602 50.3939 169.754 52.9848 171.148 56.3182C172.542 59.6212 172.86 63.5 172.102 67.9545C171.284 72.9545 169.269 77.4242 166.057 81.3636C162.875 85.2727 158.678 88.3636 153.466 90.6364C148.254 92.8788 142.223 94 135.375 94H93.6023ZM119.193 75.8636H133.102C137.92 75.8636 141.648 74.9394 144.284 73.0909C146.951 71.2121 148.527 68.6364 149.011 65.3636C149.405 62.9697 149.193 60.9091 148.375 59.1818C147.557 57.4242 146.193 56.0758 144.284 55.1364C142.375 54.1667 139.966 53.6818 137.057 53.6818H122.739L119.193 75.8636ZM125.239 39.1818H137.739C140.163 39.1818 142.39 38.7727 144.42 37.9545C146.481 37.1364 148.178 35.9545 149.511 34.4091C150.875 32.8636 151.723 31 152.057 28.8182C152.572 25.697 151.86 23.2424 149.92 21.4545C147.981 19.6667 145.148 18.7727 141.42 18.7727H128.602L125.239 39.1818Z" fill="black"/>
</svg>
